bicep_curl
version=1
nRows=101
nColumns=3
inDegrees=yes

# SIMM Motion File Header:
name bicep_curl
datacolumns 3
datarows 101
otherdata 1
range 0.0000 1.0000
endheader
time	/jointset/r_shoulder/r_shoulder_elev/value	/jointset/r_elbow/r_elbow_flex/value
0.0000	0.0000	140.0000
0.0100	0.0000	135.8682
0.0200	0.0000	131.8583
0.0300	0.0000	127.9667
0.0400	0.0000	124.1901
0.0500	0.0000	120.5248
0.0600	0.0000	116.9678
0.0700	0.0000	113.5157
0.0800	0.0000	110.1655
0.0900	0.0000	106.9142
0.1000	0.0000	103.7588
0.1100	0.0000	100.6966
0.1200	0.0000	97.7247
0.1300	0.0000	94.8406
0.1400	0.0000	92.0415
0.1500	0.0000	89.3251
0.1600	0.0000	86.6888
0.1700	0.0000	84.1304
0.1800	0.0000	81.6475
0.1900	0.0000	79.2378
0.2000	0.0000	76.8992
0.2100	0.0000	74.6297
0.2200	0.0000	72.4272
0.2300	0.0000	70.2896
0.2400	0.0000	68.2151
0.2500	0.0000	66.2019
0.2600	0.0000	64.2481
0.2700	0.0000	62.3519
0.2800	0.0000	60.5117
0.2900	0.0000	58.7259
0.3000	0.0000	56.9927
0.3100	0.0000	55.3106
0.3200	0.0000	53.6783
0.3300	0.0000	52.0941
0.3400	0.0000	50.5566
0.3500	0.0000	49.0645
0.3600	0.0000	47.6165
0.3700	0.0000	46.2112
0.3800	0.0000	44.8473
0.3900	0.0000	43.5238
0.4000	0.0000	42.2392
0.4100	0.0000	40.9926
0.4200	0.0000	39.7828
0.4300	0.0000	38.6087
0.4400	0.0000	37.4692
0.4500	0.0000	36.3634
0.4600	0.0000	35.2902
0.4700	0.0000	34.2487
0.4800	0.0000	33.2379
0.4900	0.0000	32.2570
0.5000	0.0000	31.3050
0.5100	0.0000	30.3810
0.5200	0.0000	29.4844
0.5300	0.0000	28.6142
0.5400	0.0000	27.7697
0.5500	0.0000	26.9502
0.5600	0.0000	26.1548
0.5700	0.0000	25.3829
0.5800	0.0000	24.6338
0.5900	0.0000	23.9067
0.6000	0.0000	23.2012
0.6100	0.0000	22.5164
0.6200	0.0000	21.8519
0.6300	0.0000	21.2070
0.6400	0.0000	20.5811
0.6500	0.0000	19.9737
0.6600	0.0000	19.3842
0.6700	0.0000	18.8121
0.6800	0.0000	18.2569
0.6900	0.0000	17.7181
0.7000	0.0000	17.1952
0.7100	0.0000	16.6877
0.7200	0.0000	16.1952
0.7300	0.0000	15.7172
0.7400	0.0000	15.2534
0.7500	0.0000	14.8032
0.7600	0.0000	14.3663
0.7700	0.0000	13.9423
0.7800	0.0000	13.5308
0.7900	0.0000	13.1315
0.8000	0.0000	12.7439
0.8100	0.0000	12.3678
0.8200	0.0000	12.0028
0.8300	0.0000	11.6486
0.8400	0.0000	11.3048
0.8500	0.0000	10.9712
0.8600	0.0000	10.6474
0.8700	0.0000	10.3331
0.8800	0.0000	10.0282
0.8900	0.0000	9.7322
0.9000	0.0000	9.4450
0.9100	0.0000	9.1662
0.9200	0.0000	8.8957
0.9300	0.0000	8.6332
0.9400	0.0000	8.3784
0.9500	0.0000	8.1311
0.9600	0.0000	7.8911
0.9700	0.0000	7.6582
0.9800	0.0000	7.4322
0.9900	0.0000	7.2129
1.0000	0.0000	7.0000
